<svg height="165.144565" viewBox="0 0 20.325128 5.4768721" width="605.530071" xmlns="http://www.w3.org/2000/svg"><g transform="translate(129.603041 -242.100849)"><g stroke-width=".264583"><path d="m-128.3595 243.00043h-.15875v.37042h.15875c.10583 0 .18521-.0794.18521-.18521 0-.10583-.0794-.18521-.18521-.18521z" fill="#006693"/><path d="m-128.3595 242.2596c-.60854 0-1.11125.50271-1.11125 1.11125s.50271 1.11125 1.11125 1.11125 1.11125-.50271 1.11125-1.11125-.50271-1.11125-1.11125-1.11125zm.29104 1.69333-.26458-.37042h-.18521v.37042h-.21167v-1.19062h.37042c.21167 0 .39687.1852.39687.42333 0 .13229-.0794.26458-.1852.34396l.34395.44979h-.26458z" fill="#006693"/><path d="m-119.787 243.90001c-.0265.0529-.0529.10584-.15875.10584-.0529 0-.15875-.0265-.15875-.18521v-.68792h.55562v-.37041h-.55562v-.39688h-.37042v.39688h-.26458v.37041h.26458v.68792c0 .34396.29104.55562.55563.55562.26458 0 .44979-.1852.52916-.39687z"/><path d="m-124.47013 242.76231v.0794c-.10583-.0794-.23812-.13229-.37041-.13229-.42334 0-.74084.37042-.74084.84667 0 .44979.34396.84666.74084.84666.13229 0 .26458-.0529.37041-.10583v.0529h.37042v-1.5875zm-.37041 1.24354c-.21167 0-.37042-.21167-.37042-.44979 0-.26459.15875-.4498.37042-.4498.21166 0 .37041.21167.37041.4498 0 .26458-.15875.44979-.37041.44979z"/><path d="m-121.26867 242.76231v.92604c0 .18521-.13229.3175-.3175.3175s-.3175-.13229-.3175-.3175v-.92604h-.37041v.92604c0 .39687.3175.68791.68791.68791.10584 0 .21167-.0265.3175-.0794v.0529h.37042v-1.5875z"/><path d="m-117.06179 242.70939c-.10584 0-.21167.0265-.3175.0794v-.0264h-.37042v1.5875h.37042v-.92605c0-.1852.13229-.3175.3175-.3175s.3175.1323.3175.3175v.92605h.37041v-.92605c.0265-.39687-.29104-.71437-.68791-.71437z"/><path d="m-117.90846 243.55606c0-.4498-.34396-.84667-.74083-.84667-.42334 0-.74084.37042-.74084.84667 0 .5027.42334.84666.79375.84666.18521 0 .4498-.0529.66146-.34396l-.3175-.1852c-.29104.34395-.66146.10583-.71437-.18521h1.05833c0-.0529 0-.10584 0-.13229zm-.42333-.21167h-.635c.0794-.3175.55562-.39688.635 0z"/></g><path d="m26.8 2h-2l-2.2 2.2v-4.2h-1.4v8h1.4v-2.5l2.6 2.5h2l-3.2-3.2z" transform="matrix(.26458333 0 0 .26458333 -129.47075 242.23314)"/><path d="m-126.66617 244.34981v-.60855h.26459l.47625.60855h.47625l-.55563-.74084c.18521-.13229.29104-.3175.29104-.55562 0-.37042-.3175-.68792-.68791-.68792h-.635v1.98438zm0-1.61396h.23813c.15875 0 .3175.13229.3175.3175 0 .15875-.13229.3175-.3175.3175h-.23813z" stroke-width=".264583"/><g fill="#006693"><path d="m-125.29033 244.85251c.84666 0 1.42875.55563 1.27 1.29646-.15875.71438-.97896 1.29646-1.82563 1.29646s-1.42875-.58208-1.27-1.29646c.15875-.71437.97896-1.29646 1.82563-1.29646m-.47625 2.16959c.55562 0 1.08479-.39688 1.19062-.87313s-.26458-.87312-.82021-.87312c-.55562 0-1.08479.39687-1.19062.87312-.0794.47625.26458.87313.82021.87313" stroke-width=".264583"/><path d="m23.2 12.5 1 4.6 3-4.6h2.2l-5 7h-1.6l-1.8-7z" transform="matrix(.26458333 0 0 .26458333 -129.47075 242.23314)"/><g stroke-width=".264583"><path d="m-121.55971 246.65168c0 .13229.15875.37042.52917.37042.23812 0 .42333-.0794.55562-.23813h.55563c-.21167.34396-.68792.66146-1.21709.66146-.68791 0-1.08479-.44979-.9525-.97896.10584-.52916.68792-1.00541 1.37584-1.00541.71437 0 1.03187.5027.92604.97895-.0265.0794-.0529.15875-.0794.23813h-1.69333zm1.27-.34396c0-.29104-.21167-.42333-.50271-.42333-.21166 0-.55562.0794-.71437.42333z"/><path d="m-119.39013 245.54043h.47625l-.0264.15875c.13229-.13229.23812-.23812.52916-.23812h.0529l-.10583.42333c-.47625.0265-.55563.34396-.58209.44979l-.23812 1.05833h-.52917z"/><path d="m-118.09367 244.90543h.66146c.71438 0 1.00542.15875 1.13771.29104.23812.21167.37042.58209.26458.9525-.10583.44979-.47625.87313-.9525 1.08479-.29104.1323-.68791.15875-1.00541.15875h-.68792zm.0794 2.06375h.10583c.29104 0 .50271-.0265.74083-.13229.3175-.13229.52917-.42333.58209-.68792.0529-.23812-.0265-.47625-.18521-.60854-.18521-.18521-.47625-.21167-.82021-.21167h-.10583z"/><path d="m-115.71242 245.54043h.47625l-.0265.15875c.1323-.13229.23813-.23812.52917-.23812h.0529l-.10584.42333c-.47625.0265-.55562.34396-.58208.44979l-.23812 1.05833h-.52917z"/><path d="m-114.57471 245.54043h.52917l-.42334 1.87854h-.52916zm.15875-.635h.52917l-.0794.39688h-.52916z"/></g><path d="m60.6 19.5-1.8-7h2.1l1 4.6h.1l2.9-4.6h2.2l-4.9 7z" transform="matrix(.26458333 0 0 .26458333 -129.47075 242.23314)"/><path d="m-111.55846 246.65168c0 .13229.15875.37042.52917.37042.23812 0 .42333-.0794.55562-.23813h.58209c-.21167.34396-.68792.66146-1.21709.66146-.68791 0-1.08479-.44979-.9525-.97896.10584-.52916.68792-1.00541 1.37584-1.00541.71437 0 1.03187.5027.92604.97895-.0265.0794-.0529.15875-.0794.23813h-1.71979zm1.29646-.34396c0-.29104-.21167-.42333-.50271-.42333-.21167 0-.55562.0794-.71437.42333z" stroke-width=".264583"/><path d="m-109.41533 245.48751c-.0265.10584-.1323.18521-.23813.18521s-.18521-.0794-.15875-.18521c.0265-.10583.13229-.1852.23813-.1852.10583-.0265.1852.0794.15875.1852m-.34396 0c-.0265.0794.0265.15875.13229.15875.0794 0 .15875-.0794.18521-.15875.0265-.0794-.0265-.15875-.13229-.15875-.0794 0-.15875.0794-.18521.15875m.18521-.10583c.0264 0 .0794 0 .0794.0529 0 .0265-.0265.0529-.0529.0529.0265 0 .0265.0265.0265.0529v.0529h-.0529s0 0 0-.0529c0-.0265 0-.0529-.0265-.0529h-.0529l-.0265.0794h-.0529l.0529-.21167h.10584zm-.0794.0794h.0529c.0265 0 .0529 0 .0529-.0265s-.0264-.0265-.0264-.0265h-.0529z" stroke-width=".264583"/></g></g></svg>