<svg width="211" height="81" viewBox="0 0 211 81" fill="none" xmlns="http://www.w3.org/2000/svg">
<path d="M210.119 8.04C207.848 5.49176 199.981 8.53856 195.107 11.0868C190.453 13.5242 186.631 19.5625 186.298 20.061C186.188 19.8394 185.855 19.6179 185.468 19.5625C185.08 19.5071 184.747 19.5625 184.526 19.784C184.415 19.1747 182.864 12.1947 179.319 8.31698C175.607 4.21764 169.292 -1.32201 166.3 0.284491C163.808 1.6694 166.799 6.82127 167.519 10.9206C168.295 15.02 167.63 18.6761 169.957 20.7812C172.062 22.6093 172.782 22.6647 172.893 22.6647C172.339 22.7201 164.029 24.2158 167.796 36.9016C169.236 41.7764 178.211 43.4383 180.593 36.957C181.867 33.5778 182.476 32.5252 182.753 32.4698C182.808 32.8022 182.919 33.0792 183.085 33.0792C183.252 33.1346 183.473 32.913 183.584 32.5806C183.806 32.7468 184.027 33.9102 184.083 37.5663C184.083 44.4909 193.112 45.9866 196.159 41.8872C204.025 31.2511 196.713 27.041 196.214 26.764C196.325 26.8194 197.045 27.041 199.649 25.9885C202.585 24.8251 203.194 21.169 205.355 17.5682C207.405 14.0228 212.002 10.2005 210.119 8.04Z" fill="#4698CB"/>
<path d="M16.5635 47.7225C18.2808 47.7225 19.6657 46.393 19.6657 44.6203C19.6657 42.903 18.3362 41.5181 16.5635 41.5181H12.021V33.7626C12.021 31.9899 10.5807 30.4942 8.75264 30.4942C7.03535 30.4942 5.48425 31.9899 5.48425 33.7626V41.5181H3.1022C1.38491 41.5181 0 42.8476 0 44.6203C0 46.3376 1.32952 47.7225 3.1022 47.7225H5.53965V69.2717C5.53965 75.8085 9.63899 80.074 16.0096 80.074C17.7823 80.074 19.1672 78.7445 19.1672 76.9718C19.1672 75.2545 17.7823 73.8696 16.0096 73.8696C13.5167 73.8696 12.021 72.1523 12.021 69.2163V47.7225H16.5635Z" fill="black"/>
<path d="M39.6085 74.4236C32.1854 74.4236 28.64 69.8257 28.64 60.4083C28.64 50.9909 32.2407 46.4484 39.6085 46.4484C46.9762 46.4484 50.577 50.9909 50.577 60.4083C50.577 69.8257 46.9762 74.4236 39.6085 74.4236ZM39.6085 40.4102C28.3076 40.4102 22.0478 47.5009 22.0478 60.3529C22.0478 73.2603 28.3076 80.4064 39.6085 80.4064C50.9094 80.4064 57.1692 73.3157 57.1692 60.3529C57.1692 47.5009 50.9094 40.4102 39.6085 40.4102Z" fill="black"/>
<path d="M72.3478 73.8696C71.0183 73.8696 69.7996 73.3711 69.7996 69.9365V24.0682C69.7996 22.2955 68.3592 20.7998 66.5312 20.7998C64.8139 20.7998 63.2628 22.2955 63.2628 24.0682V69.9919C63.2628 76.4733 66.4758 80.074 72.2924 80.074C74.0097 80.074 75.3946 78.6891 75.3946 76.9718C75.3946 75.2545 74.0097 73.8696 72.3478 73.8696Z" fill="black"/>
<path d="M83.8703 40.9087C82.0422 40.9087 80.6019 42.349 80.6019 44.1771V76.8056C80.6019 78.6337 82.0422 80.074 83.8703 80.074C85.6983 80.074 87.1387 78.6337 87.1387 76.8056V44.1217C87.0833 42.349 85.6429 40.9087 83.8703 40.9087Z" fill="black"/>
<path d="M111.292 40.4102C107.192 40.4102 103.481 41.9613 101.265 44.5095V44.1217C101.265 42.2936 99.8244 40.8533 97.9964 40.8533C96.1683 40.8533 94.728 42.2936 94.728 44.1217V76.7503C94.728 78.5783 96.1683 80.0186 97.9964 80.0186C99.8244 80.0186 101.265 78.5783 101.265 76.7503V56.9183C101.265 49.883 104.644 46.3376 111.292 46.3376C118.77 46.3376 120.266 50.3261 120.266 56.3643V76.8056C120.266 78.6337 121.706 80.074 123.479 80.074C125.307 80.074 126.747 78.6337 126.747 76.8056V55.3118C126.747 45.4512 121.54 40.4102 111.292 40.4102Z" fill="black"/>
<path d="M150.235 74.4236C142.812 74.4236 139.267 69.8257 139.267 60.4083C139.267 50.9909 142.868 46.4484 150.235 46.4484C157.603 46.4484 161.204 50.9909 161.204 60.4083C161.204 69.8257 157.603 74.4236 150.235 74.4236ZM150.235 40.4102C138.934 40.4102 132.675 47.5009 132.675 60.3529C132.675 73.2603 138.934 80.4064 150.235 80.4064C161.536 80.4064 167.796 73.3157 167.796 60.3529C167.796 47.5009 161.536 40.4102 150.235 40.4102Z" fill="black"/>
<path d="M83.8703 27.7244C81.4882 27.7244 80.2141 29.0539 80.2141 31.5467C80.2141 33.818 81.599 35.2029 83.8703 35.2029C86.1415 35.2029 87.5264 33.818 87.5264 31.5467C87.5264 29.0539 86.2523 27.7244 83.8703 27.7244Z" fill="black"/>
</svg>
